# xmcd
#
# Track frame offsets: 
#        150
#        14728
#        29858
#        63599
#        71014
#        84405
#        96699
#        119019
#        139798
#        150161
#
# Disc length: 2185 seconds
#
# Revision: 2
# Processed by: cddbd v1.5.2PL0 Copyright (c) Steve Scherf et al.
# Submitted via: ExactAudioCopyFreeDBPlugin 1.0
#
DISCID=9308870a
DTITLE=Various Artist - The Best of R&B
DYEAR=2008
DGENRE=R&B
TTITLE0=Ben E. King - Stand By Me
TTITLE1=Mary Wells - My Guy
TTITLE2=Ray Charles - Georgia On My Mind
TTITLE3=Maurice Williams - Stay
TTITLE4=The Chi-Lites - Oh Girl
TTITLE5=The Miracles - I Second That Emotion
TTITLE6=Billy Paul - Me and Mrs. Jones
TTITLE7=The Spinners - Could It Be I'm Falling In Love
TTITLE8=James Brown - Papas Got A Brand New Bag
TTITLE9=Aaron Neville - Tell It Like It Is
EXTD=BFP2 52240\n\nDisc One of Four
EXTT0=
EXTT1=
EXTT2=
EXTT3=
EXTT4=
EXTT5=
EXTT6=
EXTT7=
EXTT8=
EXTT9=
PLAYORDER=
